<svg width="20" height="20" viewBox="0 0 20 20" fill="none" xmlns="http://www.w3.org/2000/svg">
<path fill-rule="evenodd" clip-rule="evenodd" d="M4.65817 2.29167C4.23473 2.29167 3.80228 2.46328 3.36329 2.89541L3.35855 2.90007L3.35373 2.90463C2.97476 3.26214 2.71239 3.65296 2.5481 4.0705L2.54681 4.0738C2.3783 4.49508 2.2915 4.9574 2.2915 5.45001C2.2915 6.2189 2.46872 7.04439 2.84213 7.93154C3.22073 8.82259 3.74553 9.73159 4.40615 10.6503C5.07775 11.5725 5.8311 12.4558 6.66682 13.2998C7.51111 14.1358 8.39492 14.8896 9.32667 15.5702C10.2423 16.2368 11.1596 16.7622 12.0698 17.15C12.9654 17.5316 13.7903 17.7083 14.5415 17.7083C15.0455 17.7083 15.5052 17.6152 15.9261 17.4398L15.9295 17.4383C16.2268 17.3165 16.5029 17.1447 16.7647 16.9151C16.8634 16.8284 16.9607 16.7331 17.0565 16.6284L17.319 16.2966C17.4013 16.1747 17.4724 16.0483 17.5347 15.9164C17.6376 15.6986 17.6832 15.4813 17.6832 15.275C17.6832 15.1408 17.6564 15.0147 17.5989 14.8682C17.5598 14.7833 17.4926 14.6968 17.3608 14.6055L17.3547 14.6013L14.6017 12.6468C14.4188 12.5228 14.2678 12.4398 14.1382 12.3868C14.0197 12.3383 13.9333 12.325 13.8665 12.325C13.7863 12.325 13.7058 12.3443 13.5998 12.4088L13.5822 12.4196L13.5639 12.4291C13.4489 12.4892 13.2998 12.6006 13.1168 12.7836L13.1138 12.7865L12.4817 13.4103C12.2794 13.6118 12.0153 13.7333 11.6998 13.7333C11.5764 13.7333 11.4301 13.7194 11.2721 13.6602L11.2586 13.6552L11.2453 13.6495C11.2075 13.6333 11.1726 13.6172 11.1498 13.6067C11.1228 13.5943 11.1137 13.5903 11.1094 13.5887L11.0785 13.5763L11.0491 13.5607C10.7112 13.3818 10.3146 13.1011 9.86275 12.7188L9.862 12.7181C9.40409 12.3293 8.95875 11.9093 8.50367 11.4628L8.4995 11.4586L8.49534 11.4544C8.05086 11.0013 7.64192 10.5497 7.26056 10.109L7.25602 10.1038C6.8783 9.65734 6.58902 9.26175 6.40949 8.93259L6.38284 8.88375L6.36532 8.83125C6.36532 8.83125 6.36319 8.82534 6.35235 8.79976C6.35145 8.79759 6.35046 8.79534 6.34943 8.79284C6.33904 8.76834 6.32264 8.72967 6.30629 8.68609L6.2938 8.65275L6.28516 8.61825C6.25824 8.51059 6.2415 8.40084 6.2415 8.27501C6.2415 7.99232 6.33784 7.7225 6.55283 7.50483L7.18695 6.84567L7.19123 6.8414C7.36291 6.66971 7.4823 6.51405 7.55574 6.38414L7.56071 6.37534L7.56596 6.3667C7.62912 6.26295 7.64984 6.1742 7.64984 6.10001C7.64984 6.04646 7.63435 5.95602 7.5837 5.83787L7.57962 5.82835C7.5268 5.69924 7.44499 5.55041 7.31763 5.37353L7.31509 5.37L5.3776 2.63912C5.29631 2.52171 5.19508 2.4413 5.07126 2.38415L5.06268 2.38019C4.94409 2.32326 4.80399 2.29167 4.65817 2.29167ZM2.49115 1.99991C3.11778 1.38499 3.85033 1.04167 4.65817 1.04167C4.97749 1.04167 5.30243 1.10949 5.59935 1.25117C5.90613 1.39358 6.18575 1.61161 6.40314 1.92436L8.33342 4.645C8.50425 4.88255 8.63792 5.11497 8.73467 5.3503C8.83292 5.58092 8.89984 5.83871 8.89984 6.10001C8.89984 6.4224 8.80592 6.73053 8.639 7.00783C8.49717 7.25654 8.30339 7.4964 8.07953 7.72086L7.50557 8.31747C7.51138 8.3312 7.51918 8.34975 7.52761 8.37125C7.65234 8.58992 7.87319 8.89767 8.20808 9.29367C8.57484 9.71742 8.96384 10.1468 9.3835 10.5748C9.82675 11.0097 10.2466 11.4048 10.6705 11.7648C11.0713 12.1039 11.3837 12.3201 11.6107 12.4435C11.629 12.4514 11.6459 12.4591 11.6597 12.4653L12.2344 11.8982C12.4623 11.6705 12.7067 11.4698 12.9675 11.3305C13.24 11.1683 13.5371 11.075 13.8665 11.075C14.1164 11.075 14.3633 11.1283 14.6115 11.2298C14.8473 11.3263 15.0781 11.4591 15.3096 11.6165L15.3148 11.6201L18.0756 13.5801C18.3711 13.7854 18.6027 14.0454 18.7469 14.3733L18.7512 14.383L18.7552 14.3929C18.8613 14.6583 18.9332 14.9459 18.9332 15.275C18.9332 15.6688 18.8454 16.0681 18.665 16.4503C18.5731 16.6448 18.4654 16.8351 18.3387 17.02C18.2367 17.1688 18.123 17.3132 17.9963 17.453C17.866 17.5966 17.7303 17.7308 17.589 17.8548C17.2295 18.1702 16.8368 18.4173 16.4053 18.5943C15.8267 18.8351 15.2036 18.9583 14.5415 18.9583C13.5927 18.9583 12.6009 18.7351 11.5798 18.3C10.5736 17.8713 9.57442 17.2968 8.59034 16.5803L8.5895 16.5797C7.60543 15.8609 6.67337 15.0655 5.78504 14.1858L5.78075 14.1815C4.90106 13.2933 4.10548 12.361 3.39457 11.3845L3.39245 11.3817C2.68712 10.4011 2.11242 9.41084 1.69125 8.41934L1.69048 8.4175C1.26416 7.40505 1.0415 6.41418 1.0415 5.45001C1.0415 4.80987 1.1545 4.18944 1.38555 3.61119C1.62056 3.01461 1.9897 2.47421 2.49115 1.99991Z" fill="#18A4E1"/>
</svg>
