<svg width="20" height="24" viewBox="0 0 20 24" fill="none" xmlns="http://www.w3.org/2000/svg">
<path d="M1.33333 23.9166H18.6667C18.954 23.9166 19.2295 23.8025 19.4327 23.5993C19.6359 23.3962 19.75 23.1206 19.75 22.8333V5.49998C19.7499 5.21269 19.6358 4.93718 19.4326 4.73406L15.0993 0.40073C14.8961 0.197551 14.6206 0.0833743 14.3333 0.083313H1.33333C1.04602 0.083313 0.770465 0.19745 0.567301 0.400614C0.364137 0.603778 0.25 0.879328 0.25 1.16665V22.8333C0.25 23.1206 0.364137 23.3962 0.567301 23.5993C0.770465 23.8025 1.04602 23.9166 1.33333 23.9166ZM2.41667 2.24998H13.8848L17.5833 5.94848V21.75H2.41667V2.24998ZM13.4742 10.0576L11.5318 12L13.4742 13.9424C13.5777 14.0423 13.6603 14.1619 13.717 14.294C13.7738 14.4262 13.8037 14.5684 13.8049 14.7122C13.8062 14.8561 13.7788 14.9987 13.7243 15.1318C13.6698 15.265 13.5894 15.3859 13.4877 15.4877C13.386 15.5894 13.265 15.6698 13.1319 15.7243C12.9987 15.7788 12.8561 15.8062 12.7122 15.8049C12.5684 15.8037 12.4262 15.7738 12.2941 15.717C12.1619 15.6602 12.0424 15.5777 11.9424 15.4742L10 13.5318L8.05758 15.4742C7.85326 15.6716 7.57961 15.7808 7.29557 15.7783C7.01152 15.7758 6.73981 15.6619 6.53895 15.461C6.33809 15.2602 6.22416 14.9885 6.22169 14.7044C6.21922 14.4204 6.32841 14.1467 6.52575 13.9424L8.46817 12L6.52575 10.0576C6.32841 9.85324 6.21922 9.57959 6.22169 9.29555C6.22416 9.0115 6.33809 8.73979 6.53895 8.53893C6.73981 8.33807 7.01152 8.22414 7.29557 8.22167C7.57961 8.2192 7.85326 8.32839 8.05758 8.52573L10 10.4681L11.9424 8.52573C12.1467 8.32839 12.4204 8.2192 12.7044 8.22167C12.9885 8.22414 13.2602 8.33807 13.4611 8.53893C13.6619 8.73979 13.7758 9.0115 13.7783 9.29555C13.7808 9.57959 13.6716 9.85324 13.4742 10.0576Z" fill="white"/>
</svg>
