<svg width="28" height="28" viewBox="0 0 28 28" fill="none" xmlns="http://www.w3.org/2000/svg">
<path fill-rule="evenodd" clip-rule="evenodd" d="M15.3698 4.19628C16.1775 3.73883 17.1339 3.62098 18.0285 3.86865C18.4252 3.97847 18.7641 4.16978 19.0835 4.38586C19.387 4.59108 19.735 4.86277 20.1384 5.17766L20.1972 5.22361C20.6006 5.5385 20.9488 5.8102 21.2215 6.05474C21.5087 6.31221 21.7765 6.59457 21.9794 6.9527C22.4369 7.76041 22.5547 8.71677 22.307 9.61137C22.1972 10.008 22.0059 10.347 21.7898 10.6665C21.5846 10.9699 21.3129 11.318 20.9979 11.7214L12.7114 22.3372C12.6904 22.3641 12.6698 22.3906 12.6493 22.4168C12.2604 22.9156 11.9663 23.2926 11.6021 23.6024C11.294 23.8645 10.953 24.0855 10.5879 24.2597C10.1565 24.4655 9.69211 24.5799 9.07787 24.7314C9.04567 24.7393 9.01305 24.7473 8.98001 24.7555L6.50105 25.3674C6.32938 25.4099 6.13341 25.4584 5.96055 25.4849C5.76784 25.5145 5.46943 25.5414 5.13984 25.4359C4.74364 25.309 4.40559 25.0451 4.18633 24.6916C4.00393 24.3975 3.95752 24.1015 3.93947 23.9073C3.92328 23.7332 3.92271 23.5313 3.92221 23.3545C3.92217 23.3435 3.92215 23.3326 3.92211 23.3219L3.9141 20.8011C3.91398 20.767 3.91386 20.7334 3.91375 20.7003C3.91147 20.0677 3.90976 19.5894 4.00469 19.121C4.08505 18.7244 4.21663 18.34 4.39612 17.9775C4.60817 17.5491 4.9026 17.1723 5.29206 16.6738C5.31248 16.6476 5.33316 16.6212 5.35411 16.5943L13.6407 5.97842C13.9555 5.575 14.2273 5.2269 14.4718 4.95414C14.7293 4.66697 15.0116 4.3991 15.3698 4.19628ZM17.4058 6.11739C17.1076 6.03484 16.7889 6.07412 16.5196 6.2266C16.4739 6.2525 16.3871 6.31325 16.2092 6.51176C16.0242 6.7181 15.8013 7.00247 15.457 7.44355L19.1357 10.315C19.4801 9.87395 19.7017 9.58879 19.857 9.35925C20.0065 9.1384 20.0443 9.03943 20.0583 8.98879C20.1409 8.69059 20.1015 8.37181 19.9491 8.10257C19.9232 8.05684 19.8624 7.97003 19.6639 7.79206C19.4575 7.60706 19.1732 7.38428 18.7321 7.03998C18.291 6.69567 18.0059 6.47389 17.7764 6.31864C17.5555 6.16927 17.4565 6.13141 17.4058 6.11739ZM17.7 12.1543L14.0213 9.28287L7.19343 18.03C6.71538 18.6424 6.58057 18.8242 6.48725 19.0127C6.39751 19.194 6.33171 19.3862 6.29154 19.5844C6.24976 19.7905 6.24495 20.0167 6.24742 20.7936L6.25451 23.025L8.42076 22.4902C9.17502 22.304 9.39328 22.2444 9.58312 22.1537C9.7657 22.0667 9.93617 21.9562 10.0903 21.8251C10.2505 21.6888 10.394 21.5139 10.8721 20.9015L17.7 12.1543Z" fill="#18A4E1"/>
</svg>
