<svg width="20" height="20" viewBox="0 0 20 20" fill="none" xmlns="http://www.w3.org/2000/svg">
<path d="M9.99999 3.75C5.83333 3.75 2.27499 6.34167 0.833328 10C2.27499 13.6583 5.83333 16.25 9.99999 16.25C14.1667 16.25 17.725 13.6583 19.1667 10C17.725 6.34167 14.1667 3.75 9.99999 3.75ZM9.99999 14.1667C7.69999 14.1667 5.83333 12.3 5.83333 10C5.83333 7.7 7.69999 5.83333 9.99999 5.83333C12.3 5.83333 14.1667 7.7 14.1667 10C14.1667 12.3 12.3 14.1667 9.99999 14.1667ZM9.99999 7.5C8.61666 7.5 7.49999 8.61667 7.49999 10C7.49999 11.3833 8.61666 12.5 9.99999 12.5C11.3833 12.5 12.5 11.3833 12.5 10C12.5 8.61667 11.3833 7.5 9.99999 7.5Z" fill="#053354"/>
</svg>
