<svg width="18" height="18" viewBox="0 0 18 18" fill="none" xmlns="http://www.w3.org/2000/svg">
<path d="M8.3698 17.73C7.6498 17.01 1.7998 10.98 1.7998 7.2C1.7998 3.24 5.0398 0 8.9998 0C12.9598 0 16.1998 3.24 16.1998 7.2C16.1998 10.98 10.3498 17.01 9.6298 17.73C9.2698 18.09 8.7298 18.09 8.3698 17.73ZM8.9998 1.8C6.0298 1.8 3.5998 4.23 3.5998 7.2C3.5998 9.45 7.0198 13.68 8.9998 15.75C10.9798 13.68 14.3998 9.45 14.3998 7.2C14.3998 4.23 11.9698 1.8 8.9998 1.8Z" fill="#18A4E1"/>
<path d="M9.0002 9C9.99431 9 10.8002 8.19411 10.8002 7.2C10.8002 6.20589 9.99431 5.4 9.0002 5.4C8.00608 5.4 7.2002 6.20589 7.2002 7.2C7.2002 8.19411 8.00608 9 9.0002 9Z" fill="#18A4E1"/>
</svg>
