<svg width="20" height="20" viewBox="0 0 20 20" fill="none" xmlns="http://www.w3.org/2000/svg">
<path fill-rule="evenodd" clip-rule="evenodd" d="M2.33333 3.33334C1.55376 3.33334 0.872333 3.72436 0.453604 4.3066C0.167283 4.70473 0 5.19583 0 5.72223V14.2778C0 15.5683 1.01637 16.6667 2.33333 16.6667H8.5C8.96025 16.6667 9.33333 16.2936 9.33333 15.8333C9.33333 15.3731 8.96025 15 8.5 15H2.33333C1.99345 15 1.66667 14.7055 1.66667 14.2778V6.62305L6.4829 11.9247C7.47488 13.0166 9.19175 13.0166 10.1838 11.9247L15 6.62305V10.1111C15 10.5713 15.3731 10.9444 15.8333 10.9444C16.2936 10.9444 16.6667 10.5713 16.6667 10.1111V5.72223C16.6667 5.19584 16.4994 4.70473 16.2131 4.3066C15.7943 3.72436 15.1129 3.33334 14.3333 3.33334H2.33333ZM7.71653 10.8039L2.44392 5H14.2228L8.95017 10.8039C8.6195 11.1679 8.04718 11.1679 7.71653 10.8039ZM15.2441 17.7441C14.9187 18.0695 14.9187 18.5972 15.2441 18.9226C15.5695 19.248 16.0972 19.248 16.4226 18.9226L18.9226 16.4226C19.248 16.0972 19.248 15.5695 18.9226 15.2441L16.4226 12.7441C16.0972 12.4187 15.5695 12.4187 15.2441 12.7441C14.9187 13.0695 14.9187 13.5972 15.2441 13.9226L16.3215 15H12.5C12.0398 15 11.6667 15.3731 11.6667 15.8333C11.6667 16.2936 12.0398 16.6667 12.5 16.6667H16.3215L15.2441 17.7441Z" fill="#053354"/>
</svg>
