<svg width="24" height="24" viewBox="0 0 24 24" fill="none" xmlns="http://www.w3.org/2000/svg">
<path d="M12 18.275L7.85001 20.775C7.66668 20.8917 7.47501 20.9417 7.27501 20.925C7.07501 20.9083 6.90001 20.8417 6.75001 20.725C6.60001 20.6083 6.48334 20.4627 6.40001 20.288C6.31668 20.1127 6.30001 19.9167 6.35001 19.7L7.45001 14.975L3.77501 11.8C3.60834 11.65 3.50434 11.479 3.46301 11.287C3.42101 11.0957 3.43334 10.9083 3.50001 10.725C3.56668 10.5417 3.66668 10.3917 3.80001 10.275C3.93334 10.1583 4.11668 10.0833 4.35001 10.05L9.20001 9.62501L11.075 5.17501C11.1583 4.97501 11.2877 4.82501 11.463 4.72501C11.6377 4.62501 11.8167 4.57501 12 4.57501C12.1833 4.57501 12.3627 4.62501 12.538 4.72501C12.7127 4.82501 12.8417 4.97501 12.925 5.17501L14.8 9.62501L19.65 10.05C19.8833 10.0833 20.0667 10.1583 20.2 10.275C20.3333 10.3917 20.4333 10.5417 20.5 10.725C20.5667 10.9083 20.5793 11.0957 20.538 11.287C20.496 11.479 20.3917 11.65 20.225 11.8L16.55 14.975L17.65 19.7C17.7 19.9167 17.6833 20.1127 17.6 20.288C17.5167 20.4627 17.4 20.6083 17.25 20.725C17.1 20.8417 16.925 20.9083 16.725 20.925C16.525 20.9417 16.3333 20.8917 16.15 20.775L12 18.275Z" fill="#FFD233"/>
</svg>
