<svg width="18" height="17" viewBox="0 0 18 17" fill="none" xmlns="http://www.w3.org/2000/svg">
<path d="M8.99983 14.275L4.84983 16.775C4.66649 16.8917 4.47483 16.9417 4.27483 16.925C4.07483 16.9083 3.89983 16.8417 3.74983 16.725C3.59983 16.6083 3.48316 16.4627 3.39983 16.288C3.31649 16.1127 3.29983 15.9167 3.34983 15.7L4.44983 10.975L0.774826 7.80001C0.60816 7.65001 0.50416 7.47901 0.462826 7.28701C0.420826 7.09568 0.43316 6.90835 0.499826 6.72501C0.566493 6.54168 0.666493 6.39168 0.799826 6.27501C0.93316 6.15835 1.11649 6.08335 1.34983 6.05001L6.19983 5.62501L8.07483 1.17501C8.15816 0.975013 8.28749 0.825012 8.46283 0.725012C8.63749 0.625012 8.81649 0.575012 8.99983 0.575012C9.18316 0.575012 9.36249 0.625012 9.53783 0.725012C9.71249 0.825012 9.84149 0.975013 9.92483 1.17501L11.7998 5.62501L16.6498 6.05001C16.8832 6.08335 17.0665 6.15835 17.1998 6.27501C17.3332 6.39168 17.4332 6.54168 17.4998 6.72501C17.5665 6.90835 17.5792 7.09568 17.5378 7.28701C17.4958 7.47901 17.3915 7.65001 17.2248 7.80001L13.5498 10.975L14.6498 15.7C14.6998 15.9167 14.6832 16.1127 14.5998 16.288C14.5165 16.4627 14.3998 16.6083 14.2498 16.725C14.0998 16.8417 13.9248 16.9083 13.7248 16.925C13.5248 16.9417 13.3332 16.8917 13.1498 16.775L8.99983 14.275Z" fill="#FFD233"/>
</svg>
